<svg width="20" height="20" viewBox="0 0 20 20" fill="none" xmlns="http://www.w3.org/2000/svg">
<path d="M10 0.75C3.063 0.75 0.75 3.063 0.75 10C0.75 16.937 3.063 19.25 10 19.25C16.937 19.25 19.25 16.937 19.25 10" stroke="#130F26" stroke-width="1.5" stroke-linecap="round" stroke-linejoin="round"/>
<path fill-rule="evenodd" clip-rule="evenodd" d="M17.5285 2.30461C16.5355 1.42561 15.0185 1.51761 14.1395 2.51061C14.1395 2.51061 9.77053 7.44561 8.25553 9.15861C6.73853 10.8706 7.85053 13.2356 7.85053 13.2356C7.85053 13.2356 10.3545 14.0286 11.8485 12.3406C13.3435 10.6526 17.7345 5.69361 17.7345 5.69361C18.6135 4.70061 18.5205 3.18361 17.5285 2.30461V2.30461Z" stroke="#130F26" stroke-width="1.5" stroke-linecap="round" stroke-linejoin="round"/>
<path d="M13.0088 3.80078L16.6038 6.98378" stroke="#130F26" stroke-width="1.5" stroke-linecap="round" stroke-linejoin="round"/>
</svg>
