<svg width="19" height="19" viewBox="0 0 19 19" fill="none" xmlns="http://www.w3.org/2000/svg">
<path d="M8.14391 14.8829H1.67139" stroke="#BEC4D0" stroke-width="1.5" stroke-linecap="round" stroke-linejoin="round"/>
<path fill-rule="evenodd" clip-rule="evenodd" d="M14.9269 17.6057C16.9678 17.6057 17.6487 16.9257 17.6487 14.8839C17.6487 12.8421 16.9678 12.1621 14.9269 12.1621C12.886 12.1621 12.2051 12.8421 12.2051 14.8839C12.2051 16.9257 12.886 17.6057 14.9269 17.6057Z" stroke="#BEC4D0" stroke-width="1.5" stroke-linecap="round" stroke-linejoin="round"/>
<path d="M11.1768 4.39463H17.6484" stroke="#BEC4D0" stroke-width="1.5" stroke-linecap="round" stroke-linejoin="round"/>
<path fill-rule="evenodd" clip-rule="evenodd" d="M4.39358 1.67188C2.35179 1.67188 1.6709 2.35277 1.6709 4.39366C1.6709 6.43545 2.35179 7.11545 4.39358 7.11545C6.43448 7.11545 7.11537 6.43545 7.11537 4.39366C7.11537 2.35277 6.43448 1.67188 4.39358 1.67188Z" stroke="#BEC4D0" stroke-width="1.5" stroke-linecap="round" stroke-linejoin="round"/>
</svg>
